# xmcd
#
# Track frame offsets:
#	150
#	23260
#	42949
#	57497
#	96652
#	108603
#	131496
#	169582
#	187460
#	209613
#
# Disc length: 3016 seconds
#
# Revision: 0
# Processed by: cddbd v1.5.2PL0 Copyright (c) Steve Scherf et al.
# Submitted via: EasyCDDAExtractor 16.0.4.1
#
DISCID=940bc60a
DTITLE=Davide Floreno - One Thursday Evening
DYEAR=1900
DGENRE=
TTITLE0=Droolin'
TTITLE1=Jone's Groove
TTITLE2=Gutbucket
TTITLE3=Blues For Miss E
TTITLE4=Mister Sandman
TTITLE5=Who Does The Dishes
TTITLE6=Beautiful Love
TTITLE7=Broadcast
TTITLE8=Space Boogie
TTITLE9=Munkka
EXTD=
EXTT0=
EXTT1=
EXTT2=
EXTT3=
EXTT4=
EXTT5=
EXTT6=
EXTT7=
EXTT8=
EXTT9=
PLAYORDER=
